<svg xmlns="http://www.w3.org/2000/svg" xmlns:xlink="http://www.w3.org/1999/xlink" version="1.1" width="256" height="256" viewBox="0 0 256 256" xml:space="preserve">

<defs>
</defs>
<g style="stroke: none; stroke-width: 0; stroke-dasharray: none; stroke-linecap: butt; stroke-linejoin: miter; stroke-miterlimit: 10; fill: none; fill-rule: nonzero; opacity: 1;" transform="translate(1.4065934065934016 1.4065934065934016) scale(2.81 2.81)" >
	<path d="M 47.638 14.245 L 47.638 14.245 c -4.165 4.15 -4.171 10.892 -0.014 15.05 l 5.077 5.077 l -41.069 0 C 5.76 34.371 1 39.131 1 45.003 v 0 v 0 c 0 5.872 4.76 10.632 10.632 10.632 h 41.069 l -5.063 5.063 c -4.152 4.152 -4.152 10.884 0 15.036 l 0 0 c 4.152 4.152 10.884 4.152 15.036 0 l 23.212 -23.212 c 4.152 -4.152 4.152 -10.884 0 -15.036 L 62.66 14.259 C 58.513 10.112 51.792 10.106 47.638 14.245 z" style="stroke: none; stroke-width: 1; stroke-dasharray: none; stroke-linecap: butt; stroke-linejoin: miter; stroke-miterlimit: 10; fill: rgb(0,214,173); fill-rule: nonzero; opacity: 1;" transform=" matrix(1 0 0 1 0 0) " stroke-linecap="round" />
	<path d="M 55.156 79.847 c -3.107 0 -6.028 -1.21 -8.226 -3.407 c -2.197 -2.196 -3.407 -5.117 -3.407 -8.225 c 0 -3.106 1.21 -6.027 3.407 -8.225 l 3.356 -3.355 H 11.632 C 5.218 56.635 0 51.417 0 45.003 c 0 -6.414 5.218 -11.632 11.632 -11.632 h 38.655 l -3.37 -3.37 c -2.2 -2.2 -3.41 -5.124 -3.407 -8.235 c 0.002 -3.111 1.218 -6.034 3.421 -8.23 l 0 0 c 4.534 -4.517 11.906 -4.512 16.435 0.016 l 23.227 23.226 C 88.79 38.975 90 41.896 90 45.002 s -1.21 6.028 -3.407 8.225 L 63.381 76.439 C 61.184 78.637 58.263 79.847 55.156 79.847 z M 11.632 35.371 C 6.321 35.371 2 39.692 2 45.002 c 0 5.311 4.321 9.632 9.632 9.632 h 41.069 c 0.404 0 0.77 0.244 0.924 0.617 c 0.155 0.374 0.069 0.804 -0.217 1.09 l -5.063 5.063 c -1.819 1.819 -2.821 4.238 -2.821 6.811 c 0 2.573 1.001 4.991 2.821 6.811 c 3.755 3.755 9.865 3.757 13.622 0 l 23.212 -23.212 C 86.998 49.994 88 47.575 88 45.002 s -1.002 -4.991 -2.821 -6.811 L 61.952 14.966 c -3.75 -3.749 -9.854 -3.754 -13.608 -0.013 c -1.825 1.818 -2.831 4.238 -2.833 6.815 c -0.002 2.576 1 4.998 2.821 6.819 l 5.077 5.077 c 0.286 0.286 0.372 0.716 0.217 1.09 c -0.154 0.374 -0.52 0.617 -0.924 0.617 H 11.632 z" style="stroke: none; stroke-width: 1; stroke-dasharray: none; stroke-linecap: butt; stroke-linejoin: miter; stroke-miterlimit: 10; fill: rgb(0,0,0); fill-rule: nonzero; opacity: 1;" transform=" matrix(1 0 0 1 0 0) " stroke-linecap="round" />
</g>
</svg>